REM DIRINDEX 1\2\6,1\2\7,1\2\8,1\2\9,1\3\10,1\3\11,1\4\12,1\4\13,1\4\14,1\5\15,1\5\16,1\5\17
REM DIRNAME cjc020,folder01,folder02,folder03,folder04,folder05,folder06,folder07,folder08,folder09,folder10,folder11,folder12,folder13,folder14,folder15,folder16
TITLE ""
FILE "1900_3_032 sec06_0516_0530.mp3" MP3
  TRACK 01 AUDIO
    TITLE "0:"
    INDEX 01 00:00:00
  TRACK 02 AUDIO
    TITLE "17:cjc020_7003"
    INDEX 01 00:00:19
  TRACK 03 AUDIO
    TITLE "0:"
    INDEX 01 00:01:40
  TRACK 04 AUDIO
    TITLE "16:cjc020_7004"
    INDEX 01 00:01:42
  TRACK 05 AUDIO
    TITLE "0:"
    INDEX 01 00:02:63
  TRACK 06 AUDIO
    TITLE "17:cjc020_7005"
    INDEX 01 00:03:45
  TRACK 07 AUDIO
    TITLE "0:"
    INDEX 01 00:05:03
  TRACK 08 AUDIO
    TITLE "16:cjc020_7006"
    INDEX 01 00:05:10
  TRACK 09 AUDIO
    TITLE "0:"
    INDEX 01 00:06:24
  TRACK 10 AUDIO
    TITLE "17:cjc020_7007"
    INDEX 01 00:07:07
  TRACK 11 AUDIO
    TITLE "0:"
    INDEX 01 00:08:17
  TRACK 12 AUDIO
    TITLE "16:cjc020_7008"
    INDEX 01 00:08:23
  TRACK 13 AUDIO
    TITLE "0:"
    INDEX 01 00:09:32
  TRACK 14 AUDIO
    TITLE "17:cjc020_7009"
    INDEX 01 00:10:12
  TRACK 15 AUDIO
    TITLE "0:"
    INDEX 01 00:11:17
  TRACK 16 AUDIO
    TITLE "16:cjc020_7010"
    INDEX 01 00:11:23
  TRACK 17 AUDIO
    TITLE "0:"
    INDEX 01 00:12:22
  TRACK 18 AUDIO
    TITLE "17:cjc020_7011"
    INDEX 01 00:13:08
  TRACK 19 AUDIO
    TITLE "0:"
    INDEX 01 00:14:15
  TRACK 20 AUDIO
    TITLE "16:cjc020_7012"
    INDEX 01 00:14:19
  TRACK 21 AUDIO
    TITLE "0:"
    INDEX 01 00:15:21
  TRACK 22 AUDIO
    TITLE "17:cjc020_7013"
    INDEX 01 00:16:08
  TRACK 23 AUDIO
    TITLE "0:"
    INDEX 01 00:17:41
  TRACK 24 AUDIO
    TITLE "16:cjc020_7014"
    INDEX 01 00:17:47
  TRACK 25 AUDIO
    TITLE "0:"
    INDEX 01 00:18:70
  TRACK 26 AUDIO
    TITLE "17:cjc020_7015"
    INDEX 01 00:19:52
  TRACK 27 AUDIO
    TITLE "0:"
    INDEX 01 00:21:57
  TRACK 28 AUDIO
    TITLE "16:cjc020_7016"
    INDEX 01 00:21:60
  TRACK 29 AUDIO
    TITLE "0:"
    INDEX 01 00:22:74
  TRACK 30 AUDIO
    TITLE "17:cjc020_7017"
    INDEX 01 00:23:61
  TRACK 31 AUDIO
    TITLE "0:"
    INDEX 01 00:24:69
  TRACK 32 AUDIO
    TITLE "16:cjc020_7018"
    INDEX 01 00:24:74
  TRACK 33 AUDIO
    TITLE "0:"
    INDEX 01 00:26:05
  TRACK 34 AUDIO
    TITLE "17:cjc020_7019"
    INDEX 01 00:26:64
  TRACK 35 AUDIO
    TITLE "0:"
    INDEX 01 00:28:23
  TRACK 36 AUDIO
    TITLE "16:cjc020_7020"
    INDEX 01 00:28:27
  TRACK 37 AUDIO
    TITLE "0:"
    INDEX 01 00:29:40
  TRACK 38 AUDIO
    TITLE "17:cjc020_7021"
    INDEX 01 00:30:26
  TRACK 39 AUDIO
    TITLE "0:"
    INDEX 01 00:31:37
  TRACK 40 AUDIO
    TITLE "16:cjc020_7022"
    INDEX 01 00:31:41
  TRACK 41 AUDIO
    TITLE "0:"
    INDEX 01 00:32:68
  TRACK 42 AUDIO
    TITLE "17:cjc020_7023"
    INDEX 01 00:33:42
  TRACK 43 AUDIO
    TITLE "0:"
    INDEX 01 00:34:65
  TRACK 44 AUDIO
    TITLE "16:cjc020_7024"
    INDEX 01 00:34:71
  TRACK 45 AUDIO
    TITLE "0:"
    INDEX 01 00:35:74
  TRACK 46 AUDIO
    TITLE "17:cjc020_7025"
    INDEX 01 00:36:58
  TRACK 47 AUDIO
    TITLE "0:"
    INDEX 01 00:37:63
  TRACK 48 AUDIO
    TITLE "16:cjc020_7026"
    INDEX 01 00:37:67
  TRACK 49 AUDIO
    TITLE "0:"
    INDEX 01 00:39:09
  TRACK 50 AUDIO
    TITLE "17:cjc020_7027"
    INDEX 01 00:39:64
  TRACK 51 AUDIO
    TITLE "0:"
    INDEX 01 00:41:20
  TRACK 52 AUDIO
    TITLE "16:cjc020_7028"
    INDEX 01 00:41:24
  TRACK 53 AUDIO
    TITLE "0:"
    INDEX 01 00:42:43
  TRACK 54 AUDIO
    TITLE "17:cjc020_7029"
    INDEX 01 00:43:27
  TRACK 55 AUDIO
    TITLE "0:"
    INDEX 01 00:44:40
  TRACK 56 AUDIO
    TITLE "16:cjc020_7030"
    INDEX 01 00:44:44
  TRACK 57 AUDIO
    TITLE "0:"
    INDEX 01 00:45:53
  TRACK 58 AUDIO
    TITLE "17:cjc020_7031"
    INDEX 01 00:46:35
  TRACK 59 AUDIO
    TITLE "0:"
    INDEX 01 00:47:58
  TRACK 60 AUDIO
    TITLE "16:cjc020_7032"
    INDEX 01 00:47:64
  TRACK 61 AUDIO
    TITLE "0:"
    INDEX 01 00:49:12
